<?xml version="1.0" encoding="UTF-8"?>
<svg width="109px" height="120px" viewBox="0 0 109 120" version="1.1" xmlns="http://www.w3.org/2000/svg" xmlns:xlink="http://www.w3.org/1999/xlink">
    <title>Group 97</title>
    <g id="Page-1" stroke="none" stroke-width="1" fill="none" fill-rule="evenodd">
        <g id="2779187" transform="translate(-311.000000, -10.000000)" fill="#000000">
            <g id="Group-97" transform="translate(311.000000, 10.000000)">
                <path d="M72.26,77.31 L72.26,77.31 C72.316,77.279 72.371,77.248 72.425,77.216 C72.371,77.248 72.315,77.279 72.26,77.31" id="Fill-94"></path>
                <path d="M2.28,115.619 C2.381,115.099 2.41,114.698 2.539,114.334 C3.898,110.493 6.403,107.488 9.484,104.917 C10.738,103.871 12.135,103.049 13.675,102.495 C16.392,101.516 19.122,100.573 21.831,99.574 C23.084,99.111 24.302,98.556 25.532,98.031 C26.15,97.768 26.757,97.48 27.712,97.048 C26.333,100.584 25.047,103.759 23.857,106.97 C22.661,110.198 21.559,113.462 20.357,116.88 C17.459,116.761 14.433,116.789 11.444,116.47 C8.451,116.151 5.404,116.298 2.28,115.619 Z M29.77,96.682 C30.755,94.39 32.592,93.061 34.912,92.328 C35.01,92.296 35.141,92.368 35.262,92.408 C35.26,92.4 35.257,92.391 35.255,92.383 C35.273,92.396 35.291,92.409 35.308,92.422 C35.294,92.419 35.278,92.414 35.262,92.408 C35.41,92.915 35.557,93.422 35.718,93.98 C33.359,95.834 32.194,98.431 31.387,101.261 C30.925,102.885 30.314,104.466 29.826,106.083 C28.728,109.72 27.666,113.366 26.549,117.143 C25.307,117.269 23.943,117.307 22.431,116.925 C22.538,116.37 22.581,115.895 22.72,115.45 C24.169,110.813 25.723,106.215 27.707,101.771 C28.452,100.1 29.047,98.363 29.77,96.682 Z M36.493,94.334 C37.036,94.703 37.536,95.044 38.082,95.415 C37.552,97.191 37.067,98.872 36.55,100.542 C35.571,103.708 34.964,106.952 34.407,110.214 C33.995,112.631 33.441,115.023 32.922,117.565 C30.984,117.769 29.334,117.554 27.639,117.186 C28.635,113.017 29.858,108.985 31.202,104.987 C31.628,103.722 31.986,102.435 32.38,101.159 C33.07,98.921 33.97,96.793 35.624,95.069 C35.859,94.823 36.145,94.626 36.493,94.334 Z M39.277,88.21 C40.271,87.07 41.155,87.09 42.517,88.08 C42.036,88.996 41.553,89.912 41,90.964 C40.232,90.535 39.63,90.198 38.71,89.683 C38.865,90.273 38.86,90.612 39.025,90.803 C39.333,91.16 39.74,91.431 40.114,91.744 C39.484,92.436 38.974,92.998 38.35,93.685 C37.811,93.397 37.22,93.082 36.478,92.686 C37.246,91.007 38.134,89.518 39.277,88.21 Z M43.706,88.729 C44.146,88.581 44.73,88.863 45.303,88.965 C44.881,90.103 44.526,91.061 44.118,92.161 C43.439,91.955 42.801,91.761 41.983,91.513 C42.226,90.763 42.293,90.245 42.548,89.851 C42.84,89.402 43.241,88.885 43.706,88.729 Z M35.874,64.959 C33.033,60.616 31.979,55.817 31.776,50.73 C31.579,45.803 31.319,40.877 31.033,35.954 C30.968,34.835 30.719,33.721 30.484,32.621 C30.247,31.514 30.562,30.707 31.525,30.107 C32.301,29.622 33.074,29.12 33.793,28.555 C35.548,27.176 36.583,25.404 36.591,23.113 C36.592,22.833 36.627,22.553 36.66,22.274 C36.667,22.213 36.738,22.16 36.957,21.863 C36.957,23.624 37.093,25.165 36.923,26.671 C36.679,28.853 35.388,30.444 33.471,31.442 C32.826,31.778 32.005,31.78 31.163,31.956 C32.191,32.617 33.297,32.639 34.516,32.652 C34.237,33.12 34.036,33.457 33.738,33.956 C37.208,33.331 40.285,31.776 43.663,31.471 C43.841,31.455 44.004,31.261 44.343,31.039 C43.901,30.713 43.659,30.387 43.388,30.362 C42.488,30.279 41.552,30.161 40.678,30.321 C39.471,30.543 38.295,30.929 37.111,31.274 C36.962,31.318 36.813,31.36 36.664,31.402 C36.663,31.406 36.662,31.41 36.661,31.414 L36.631,31.417 C36.617,31.418 36.603,31.419 36.603,31.419 C36.603,31.419 36.556,31.422 36.528,31.424 L36.505,31.425 L36.611,31.417 C36.629,31.412 36.646,31.407 36.664,31.402 C36.725,31.215 36.76,31.008 36.822,30.821 C36.859,30.707 36.907,30.6 36.975,30.509 C38.179,28.919 38.662,27.128 38.617,25.156 C38.587,23.818 38.611,22.479 38.611,21.15 C38.995,20.883 39.32,20.656 39.635,20.436 C39.563,20.262 39.549,20.099 39.464,20.041 C38.748,19.55 38.744,19.556 38.761,18.519 C40.738,17.472 42.913,17.833 44.98,18.019 C45.173,17.324 44.84,17.125 44.522,17.038 C43.78,16.834 43.021,16.687 42.263,16.546 C41.869,16.474 41.464,16.464 41.072,16.161 C42.186,16.161 43.3,16.137 44.414,16.168 C45.424,16.197 46.341,16.921 47.477,16.704 C47.262,15.232 45.756,15.541 44.988,14.574 C45.49,14.631 45.893,14.567 46.163,14.728 C47.305,15.409 48.412,16.153 49.525,16.884 C49.741,17.025 49.93,17.208 50.233,17.455 C50.856,15.924 49.419,15.493 48.827,14.431 C50.706,14.76 51.343,16.495 52.795,17.074 C53.421,16.995 53.624,16.43 53.88,15.949 C54.492,14.803 55.341,13.875 56.397,13.136 C57.35,12.468 58.375,12.056 59.823,12.498 C59.056,12.908 58.458,13.227 57.861,13.548 C56.923,14.052 56.005,14.588 55.424,15.523 C55.159,15.952 54.967,16.417 55.661,16.878 C56.806,15.43 58.169,14.254 60.105,14.065 C60.136,14.039 60.169,14.013 60.199,13.986 C60.251,13.977 60.301,13.968 60.346,13.96 C60.38,13.927 60.408,13.9 60.423,13.884 C60.452,13.857 60.439,13.868 60.346,13.96 C60.359,13.958 60.371,13.956 60.382,13.954 C60.416,13.948 60.439,13.944 60.452,13.942 C60.466,13.939 60.468,13.939 60.452,13.942 C60.437,13.944 60.414,13.948 60.382,13.954 C60.37,13.956 60.361,13.958 60.346,13.96 C60.318,13.987 60.288,14.018 60.256,14.049 C60.205,14.052 60.155,14.06 60.105,14.065 C59.31,14.721 58.158,15.024 57.799,16.396 C58.532,16.27 59.13,16.117 59.737,16.077 C60.312,16.039 60.893,16.108 61.473,16.136 C61.479,16.125 61.484,16.112 61.49,16.1 C61.514,16.095 61.54,16.093 61.565,16.089 C61.594,16.04 61.625,15.991 61.654,15.941 C61.654,15.984 61.668,16.052 61.649,16.063 C61.625,16.078 61.595,16.084 61.565,16.089 C61.554,16.106 61.545,16.123 61.534,16.14 C61.513,16.139 61.493,16.137 61.473,16.136 C61.302,16.486 61.199,16.912 60.93,17.153 C59.883,18.095 58.822,19.032 57.685,19.859 C56.055,21.045 54.768,22.532 53.711,24.208 C51.951,26.995 52.837,30.837 55.611,32.59 C57.35,33.69 59.108,33.514 60.789,32.437 C61.433,32.025 61.998,31.49 62.685,30.942 C64.186,32.732 66.164,33.271 68.299,33.045 C69.034,34.13 69.689,35.096 70.47,36.25 C70.084,36.227 69.823,36.282 69.639,36.188 C69.076,35.9 68.541,35.558 67.998,35.23 C65.551,33.754 63.025,33.84 60.494,34.933 C59.347,35.427 58.172,35.943 57.319,37.133 C58.616,37.673 59.434,36.35 60.643,36.574 C60.772,37.199 60.911,37.872 61.06,38.599 C60.608,38.861 60.213,39.091 59.598,39.447 C60.064,39.679 60.36,39.965 60.611,39.93 C63.079,39.583 65.536,39.8 67.997,39.977 C68.167,39.989 68.35,39.819 68.64,39.681 C68.208,38.766 67.195,39.185 66.578,38.61 C66.658,38.005 66.748,37.322 66.844,36.591 C68.058,36.32 68.64,37.611 69.837,37.727 C70.324,37.449 70.922,37.107 71.641,36.696 C72.499,36.908 73.447,37.142 74.516,37.407 C74.516,38.688 74.552,39.946 74.508,41.201 C74.409,44.09 74.18,46.977 74.171,49.866 C74.159,53.436 73.541,56.894 72.378,60.231 C70.895,64.484 68.376,67.966 64.304,70.172 C61.966,71.439 59.421,72.001 56.845,72.385 C52.376,73.052 47.962,72.623 43.714,71.101 C40.456,69.933 37.812,67.924 35.874,64.959 Z M30.242,53.338 C29.732,53.338 29.157,53.477 28.683,53.316 C23.915,51.704 22.188,45.57 25.397,41.728 C26.165,40.808 27.173,40.694 28.273,41.055 C29.551,41.475 29.935,42.055 30.045,43.87 C28.574,45.497 26.314,46.462 26.501,49.211 C28.205,48.64 28.453,46.726 29.888,46.044 C30.418,46.222 30.225,46.715 30.23,47.076 C30.255,49.105 30.242,51.135 30.242,53.338 Z M32.637,26.956 C32.613,26.971 32.589,26.987 32.564,27.003 C32.572,26.994 32.58,26.985 32.588,26.976 C32.599,26.963 32.611,26.95 32.611,26.95 C32.62,26.952 32.629,26.954 32.637,26.956 C32.703,26.915 32.768,26.873 32.835,26.832 C32.91,26.784 32.985,26.737 33.061,26.689 C33.059,26.664 33.06,26.639 33.055,26.609 C33.099,26.592 33.139,26.576 33.178,26.56 C33.547,26.053 33.914,25.546 34.282,25.04 C33.952,26.198 33.933,26.256 33.178,26.56 C33.154,26.594 33.13,26.628 33.104,26.662 C33.089,26.671 33.075,26.68 33.061,26.689 C33.071,26.977 32.897,27.021 32.637,26.956 Z M36.905,19.569 C36.903,19.613 36.876,19.656 36.841,19.699 C36.807,19.741 36.766,19.783 36.735,19.826 C36.712,19.804 36.677,19.78 36.649,19.757 C36.622,19.734 36.6,19.713 36.603,19.695 C36.623,19.578 36.677,19.466 36.724,19.34 C36.792,19.42 36.909,19.498 36.905,19.569 Z M30.579,15.403 C30.837,12.108 32.447,9.69 35.671,8.537 C36.969,8.071 38.215,7.289 39.946,7.876 C39.289,8.098 38.848,8.312 38.384,8.388 C37.102,8.599 36.001,9.213 34.882,9.819 C32.976,10.851 32.055,12.504 31.814,14.591 C31.676,15.781 31.612,16.979 31.455,18.166 C31.318,19.196 31.097,20.215 30.914,21.238 C30.811,21.232 30.709,21.226 30.606,21.219 C30.587,19.28 30.427,17.33 30.579,15.403 Z M50.232,7.286 C50.852,7.674 51.469,8.207 51.28,9.217 C50.352,8.55 49.565,7.86 48.667,7.373 C47.768,6.885 46.759,6.599 45.799,6.225 C47.555,5.615 48.911,6.458 50.232,7.286 Z M50.439,4.848 C51.535,6.108 52.612,7.435 52.573,9.656 C51.825,8.299 51.382,7.144 50.636,6.239 C49.899,5.347 48.855,4.708 47.677,3.735 C48.933,3.644 49.808,4.123 50.439,4.848 Z M61.608,29.353 C61.126,29.818 60.617,29.625 60.119,29.375 C59.505,29.069 59.157,28.524 59.079,27.88 C58.848,25.964 58.964,24.087 60.108,22.433 C60.495,21.875 60.979,21.385 61.42,20.864 C60.887,26.8 60.887,26.8 61.608,29.353 Z M57.638,27.857 C57.852,29.394 58.629,30.057 60.159,30.144 C60.777,30.178 61.399,30.149 62.137,30.149 C61.754,31.095 60.994,31.285 60.275,31.507 C58.535,32.045 56.945,31.912 55.671,30.429 C54.296,28.831 54.005,26.944 55.028,25.174 C55.979,23.529 57.16,22.052 58.83,20.963 C59.136,21.615 58.603,21.935 58.408,22.317 C57.505,24.084 57.373,25.951 57.638,27.857 Z M57.587,7.57 C57.588,7.545 57.589,7.519 57.589,7.492 C57.634,7.491 57.679,7.492 57.724,7.491 C58.342,7.083 58.988,6.774 59.752,6.671 C61.645,6.416 63.179,6.886 64.413,8.45 C65.399,9.701 66.149,11.03 66.371,12.593 C66.777,15.444 67.109,18.306 67.459,21.165 C67.482,21.358 67.398,21.565 67.341,21.904 C66.496,21.234 66.25,20.363 66.115,19.485 C65.828,17.612 65.589,15.73 65.376,13.847 C65.19,12.204 64.592,10.719 63.784,9.302 C63.014,7.952 61.903,7.275 60.303,7.425 C59.63,7.488 58.949,7.484 58.269,7.486 C58.088,7.486 57.906,7.488 57.724,7.491 C57.695,7.511 57.665,7.529 57.635,7.549 C57.611,7.635 57.586,7.72 57.579,7.742 C57.58,7.713 57.583,7.646 57.587,7.57 Z M60.172,5.638 C60.173,5.638 60.174,5.638 60.176,5.638 C60.193,5.632 60.213,5.625 60.236,5.618 C60.265,5.608 60.299,5.597 60.333,5.585 C60.354,5.582 60.375,5.581 60.395,5.578 C60.471,4.921 61.04,4.991 61.469,4.95 C62.348,4.866 63.098,5.251 63.757,5.788 C64.541,6.425 65.621,6.84 65.614,8.112 C65.657,8.139 65.699,8.166 65.742,8.192 C65.716,8.181 65.692,8.17 65.668,8.159 C65.032,7.647 64.392,7.139 63.76,6.622 C62.776,5.816 61.672,5.414 60.395,5.578 C60.393,5.594 60.39,5.608 60.389,5.625 C60.303,5.63 60.22,5.635 60.176,5.638 C60.167,5.641 60.16,5.644 60.153,5.646 C60.129,5.654 60.131,5.653 60.153,5.646 C60.16,5.644 60.166,5.642 60.176,5.638 C60.174,5.638 60.174,5.638 60.172,5.638 C60.14,5.64 60.133,5.641 60.172,5.638 Z M67.609,22.954 C67.609,22.951 67.639,22.951 67.666,22.951 C67.674,22.951 67.683,22.951 67.69,22.95 C67.686,22.966 67.682,22.982 67.678,23 C67.674,23.019 67.67,23.04 67.663,23.066 C67.651,23.12 67.633,23.195 67.605,23.314 C67.605,23.072 67.604,23.012 67.609,22.954 Z M75.601,45.912 C77.367,46.56 77.643,48.565 79.329,49.284 C79.58,46.445 77.23,45.523 75.944,43.937 C75.89,41.97 76.405,41.238 78.054,40.934 C79.121,40.736 79.976,41.058 80.645,41.931 C83.596,45.79 81.832,51.355 77.723,53.124 C77.059,53.41 76.403,53.554 75.559,53.262 C75.581,50.876 75.472,48.461 75.601,45.912 Z M79.209,70.456 C79.094,71.498 79.088,72.586 78.761,73.564 C78.111,75.505 76.308,77.643 72.668,77.133 C72.66,77.14 72.652,77.147 72.643,77.154 C72.578,77.177 72.511,77.196 72.448,77.222 C72.383,77.248 72.323,77.28 72.26,77.31 C72.315,77.279 72.371,77.248 72.425,77.216 C72.48,77.186 72.535,77.154 72.589,77.123 C72.616,77.127 72.641,77.129 72.668,77.133 C72.979,76.868 73.283,76.591 73.588,76.316 C74.109,75.847 74.635,75.385 75.215,75.004 C76.891,73.903 77.997,72.461 78.43,70.5 C78.484,70.257 78.624,70.032 78.708,69.834 C79.251,69.863 79.235,70.213 79.209,70.456 Z M69.995,76.315 C70.196,75.318 70.837,74.814 71.444,74.42 C73.964,72.788 75.373,70.513 75.609,67.494 C76.305,67.875 76.243,68.457 76.251,69.017 C76.268,70.436 76.141,71.863 75.374,73.065 C74.16,74.967 72.464,76.194 69.995,76.315 Z M66.91,89.417 C67.986,91.24 70.339,92.174 70.866,94.708 C70.357,94.835 69.917,94.946 69.525,95.044 C68.426,93.957 67.392,92.934 66.361,91.909 C66.212,91.762 66.026,91.627 65.941,91.446 C65.741,91.019 65.406,90.542 65.465,90.135 C65.558,89.493 66.189,89.387 66.91,89.417 Z M68.821,88.457 C70.547,90.114 72.198,91.701 73.91,93.345 C73.548,93.969 72.915,94.129 72.067,94.187 C71.48,93.35 70.914,92.395 70.201,91.566 C69.483,90.731 68.62,90.021 67.701,89.142 C68.217,88.826 68.55,88.622 68.821,88.457 Z M76.124,91.745 C75.815,92.097 75.506,92.451 75.213,92.787 C72.832,91.688 70.849,89.865 70.108,88.128 C71.729,88.399 73.795,89.634 76.124,91.745 Z M77.587,91.483 C80.047,92.141 81.379,93.683 82.046,95.96 C82.979,99.152 83.559,102.41 83.972,105.698 C84.305,108.354 84.522,111.024 84.804,113.686 C84.885,114.455 85.042,115.216 85.111,115.985 C85.161,116.529 85.121,117.08 85.121,117.571 C83.785,118.077 83.785,118.081 82.444,117.841 C82.255,117.23 82.032,116.571 81.85,115.901 C80.616,111.343 79.423,106.773 78.143,102.227 C77.572,100.196 76.83,98.213 76.161,96.209 C76.05,95.876 75.893,95.555 75.808,95.216 C75.612,94.433 75.635,93.706 76.278,93.074 C76.725,92.634 77.084,92.104 77.587,91.483 Z M84.779,96.108 C86.733,96.905 88.661,97.775 90.644,98.491 C94.268,99.8 97.514,101.799 100.483,104.167 C102.161,105.504 103.428,107.363 104.836,109.026 C105.424,109.722 105.909,110.509 106.417,111.271 C106.884,111.974 107.269,112.716 107.252,113.663 C105.051,114.857 102.735,115.666 100.293,116.024 C97.229,116.473 94.148,116.801 91.074,117.171 C89.62,117.347 88.163,117.499 86.653,117.668 C86.36,113.915 86.137,110.279 85.777,106.656 C85.417,103.034 84.809,99.445 83.608,95.694 C84.18,95.896 84.485,95.989 84.779,96.108 Z M77.756,118.224 C77.552,117.66 77.304,117.1 77.145,116.515 C76.003,112.303 74.929,108.072 73.729,103.877 C72.975,101.244 72.04,98.664 71.182,96.05 C71.373,95.886 71.508,95.706 71.689,95.625 C72.518,95.254 73.36,94.911 74.323,94.505 C75.984,98.308 76.842,102.281 77.906,106.187 C78.958,110.053 79.961,113.933 81.026,117.962 C79.957,118.353 78.933,118.208 77.756,118.224 Z M70.81,118.145 C69.073,111.282 69.2,104.117 66.872,97.159 C68.064,96.805 69.061,96.508 70.043,96.217 C71.191,98.605 75.408,113.837 76.118,118.124 C74.368,118.404 72.628,118.245 70.81,118.145 Z M65.046,117.923 C65.014,117.287 64.966,116.741 64.964,116.195 C64.944,110.427 64.931,104.659 64.916,98.891 C64.913,97.866 64.911,97.866 66.126,97.544 C67.909,104.212 68.084,111.136 69.588,118.118 C67.88,118.205 66.505,118.248 65.046,117.923 Z M64.224,92.88 C62.745,92.749 62.549,92.476 62.505,90.339 C62.78,90.25 63.09,90.125 63.414,90.05 C63.68,89.988 63.961,89.985 64.209,89.959 C64.323,90.107 64.466,90.206 64.48,90.32 C64.634,91.624 65.559,92.41 66.408,93.255 C66.993,93.836 67.547,94.449 68.149,95.083 C67.413,95.978 66.473,95.7 65.78,96.045 C64.448,94.128 64.448,94.128 64.224,92.88 Z M60.771,97.203 C60.571,96.254 60.447,95.665 60.289,94.916 C61.357,94.59 62.331,94.294 63.353,93.984 C63.662,94.375 63.947,94.679 64.162,95.026 C64.339,95.313 64.433,95.651 64.586,96.019 C63.483,96.91 62.118,96.514 60.771,97.203 Z M63.691,116.946 C63.684,117.219 63.604,117.49 63.54,117.877 C62.339,117.877 61.172,117.877 59.901,117.877 C59.607,116.126 59.848,114.455 59.982,112.791 C60.164,110.544 60.405,108.303 60.603,106.057 C60.814,103.673 61.005,101.286 61.203,98.912 C61.879,98.05 62.928,98.409 63.867,97.867 C63.955,98.422 64.074,98.8 64.066,99.177 C63.952,105.1 63.824,111.023 63.691,116.946 Z M58.507,117.927 C57.099,117.927 55.799,117.927 54.326,117.927 C54.326,117.301 54.26,116.679 54.338,116.076 C54.765,112.728 55.235,109.385 55.676,106.039 C55.942,104.019 56.181,101.996 56.436,99.974 C56.47,99.703 56.524,99.434 56.581,99.094 C57.736,98.986 58.845,98.883 60.123,98.765 C60.152,99.256 60.243,99.717 60.197,100.165 C59.696,105.063 59.164,109.958 58.663,114.856 C58.563,115.826 58.561,116.806 58.507,117.927 Z M49.262,118.211 C49.026,116.533 49.136,114.992 49.384,113.485 C50.16,108.772 51.016,104.072 51.859,99.272 C53.013,98.752 54.224,98.992 55.471,99.083 C55.797,100.726 55.306,102.154 55.061,103.578 C54.24,108.352 53.326,113.11 53.006,118.006 C51.769,118.538 50.56,118.41 49.262,118.211 Z M47.882,118.169 C46.28,118.15 44.892,118.257 43.567,117.802 C43.789,113.346 46.071,101.468 47.277,98.612 C48.388,98.739 49.55,98.872 50.836,99.019 C50.776,99.622 50.758,100.096 50.678,100.56 C49.859,105.264 49.012,109.963 48.214,114.671 C48.029,115.764 48,116.882 47.882,118.169 Z M38.627,117.706 C38.705,116.907 38.719,116.218 38.845,115.549 C39.972,109.544 40.73,103.468 42.166,97.37 C43.613,97.737 44.883,98.06 46.264,98.41 C44.276,104.768 43.18,111.141 42.321,117.649 C41.095,118.016 39.941,117.784 38.627,117.706 Z M41.625,95.348 C40.866,94.994 40.146,94.658 39.224,94.228 C39.597,93.695 39.779,93.133 40.12,93.008 C40.928,92.713 41.828,92.44 42.718,93.167 C42.367,93.868 42.038,94.524 41.625,95.348 Z M46.767,94.261 C46.738,94.913 46.706,95.639 46.667,96.504 C45.321,96.523 44.164,96.199 42.687,95.596 C42.996,95.037 43.116,94.477 43.451,94.278 C44.452,93.686 45.546,93.72 46.767,94.261 Z M48.736,89.526 C48.377,90.61 48.02,91.686 47.61,92.921 C47.011,92.854 46.347,92.778 45.584,92.692 C45.256,89.697 46.002,88.982 48.736,89.526 Z M55.252,93.698 C54.258,94.018 53.393,93.882 52.545,93.597 C51.923,90.663 52.925,89.633 55.777,90.277 C55.602,91.415 55.428,92.552 55.252,93.698 Z M52.058,94.954 C53.244,95.054 54.08,95.125 55.076,95.209 C55.173,95.791 55.272,96.379 55.36,96.901 C55.157,97.075 55.058,97.231 54.949,97.239 C54.389,97.282 53.824,97.332 53.267,97.291 C52.866,97.261 52.457,97.132 52.087,96.966 C51.942,96.902 51.81,96.612 51.821,96.434 C51.849,95.977 51.961,95.525 52.058,94.954 Z M50.692,94.882 C50.692,95.64 50.692,96.312 50.692,97.039 C49.825,97.394 49.028,96.953 47.972,96.962 C47.937,96.28 47.795,95.769 47.928,95.345 C48.028,95.029 48.472,94.635 48.786,94.615 C49.392,94.574 50.014,94.773 50.692,94.882 Z M49.068,93.272 C48.603,91.835 49.247,90.875 49.976,89.883 C50.648,89.883 51.263,89.883 51.965,89.883 C51.646,91.169 51.364,92.302 51.046,93.58 C50.384,93.477 49.721,93.374 49.068,93.272 Z M56.399,92.285 C56.464,90.496 56.968,90.146 58.963,90.417 C58.963,91.525 58.963,92.627 58.963,93.677 C58.182,94.325 57.425,93.935 56.559,94.008 C56.495,93.359 56.38,92.819 56.399,92.285 Z M59.215,95.014 C59.32,95.806 59.389,96.338 59.467,96.928 C58.536,97.442 57.66,97.329 56.589,97.158 C56.514,96.57 56.442,95.994 56.353,95.284 C57.348,95.19 58.166,95.113 59.215,95.014 Z M62.46,93.618 C61.734,93.751 61.126,93.863 60.512,93.976 C59.61,93.06 59.682,92.034 59.976,91.01 C60.188,90.274 60.755,90.087 61.537,90.34 C61.82,91.344 62.115,92.393 62.46,93.618 Z M64.951,80.152 C65.074,82.484 65.678,84.738 66.537,86.892 C66.2,87.796 65.466,88.056 64.686,88.128 C62.794,88.302 60.891,88.561 59,88.518 C54.56,88.416 50.11,88.306 45.755,87.267 C45.282,87.155 44.82,86.993 44.268,86.829 C44.387,84.793 44.495,82.982 44.606,81.081 C48.22,81.7 51.607,80.69 54.989,79.879 C58.096,79.133 60.57,77.244 62.725,74.927 C63.335,74.271 63.969,73.639 64.864,72.716 C64.887,75.446 64.826,77.804 64.951,80.152 Z M33.916,117.501 C35.365,110.275 36.287,103.001 38.961,95.864 C39.782,96.26 40.464,96.588 41.125,96.906 C39.859,103.868 38.617,110.712 37.359,117.632 C36.255,117.854 35.169,117.819 33.916,117.501 Z M14.902,68.229 C13.43,66.448 12.914,64.249 13.486,61.729 C14.092,63.354 14.103,64.971 15.043,66.206 C15.969,67.424 16.97,68.585 17.973,69.815 C16.659,69.929 15.714,69.213 14.902,68.229 Z M12.365,69.419 L12.321,69.454 C12.292,69.471 12.262,69.488 12.233,69.505 C12.261,69.487 12.29,69.469 12.318,69.45 C11.854,68.779 11.402,68.1 10.925,67.438 C9.507,65.468 9.209,63.357 10.143,61.108 C10.203,60.963 10.31,60.838 10.43,60.718 C10.541,60.607 10.662,60.5 10.766,60.387 C10.77,60.358 10.772,60.329 10.775,60.301 C10.792,60.218 10.807,60.136 10.814,60.098 C10.815,60.081 10.815,60.084 10.814,60.098 C10.82,60.067 10.819,60.072 10.814,60.098 C10.813,60.108 10.812,60.125 10.81,60.146 C10.805,60.199 10.799,60.279 10.793,60.359 C10.785,60.368 10.775,60.378 10.766,60.387 C10.754,60.516 10.742,60.646 10.733,60.776 C10.727,60.857 10.722,60.936 10.716,61.016 C10.705,61.175 10.693,61.334 10.674,61.492 C10.646,61.728 10.605,61.959 10.534,62.181 C10.049,63.698 10.546,64.942 11.439,66.119 C12.807,67.92 14.356,69.547 16.161,71.04 C14.535,71.23 13.624,69.91 12.365,69.419 Z M11.037,69.156 L10.985,69.107 C10.919,68.902 10.852,68.697 10.786,68.493 C10.766,68.476 10.75,68.458 10.73,68.441 C10.355,68.384 9.913,68.411 9.653,68.207 C8.588,67.367 7.827,66.313 7.56,64.923 C7.238,63.247 7.204,61.595 7.697,59.95 C7.842,59.462 8.095,59.085 8.674,59.128 C8.681,59.107 8.689,59.086 8.695,59.065 C8.731,58.685 8.767,58.304 8.803,57.924 C9.028,57.849 9.252,57.774 9.476,57.699 C9.49,57.677 9.505,57.655 9.519,57.633 C9.506,57.654 9.494,57.676 9.482,57.697 L9.462,57.725 L9.442,57.753 C9.243,57.817 9.045,57.883 8.845,57.948 C8.804,58.342 8.763,58.735 8.723,59.129 C8.706,59.128 8.692,59.129 8.674,59.128 C8.555,59.507 8.414,59.881 8.329,60.268 C7.637,63.436 8.207,66.232 10.73,68.441 C10.755,68.445 10.781,68.448 10.805,68.453 C10.88,68.681 10.956,68.909 11.03,69.137 C11.057,69.155 11.085,69.173 11.112,69.191 C11.087,69.179 11.062,69.167 11.037,69.156 Z M8.126,36.5 C8.695,34.975 9.652,33.841 11.088,33.109 C11.307,32.997 11.597,33.022 12.294,32.919 C11.766,33.411 11.552,33.619 11.329,33.816 C9.379,35.537 8.833,37.696 9.599,40.108 C10.162,41.881 10.883,43.618 12.02,45.133 C12.033,45.132 12.046,45.129 12.058,45.128 C12.135,45.27 12.212,45.412 12.289,45.553 C12.328,45.615 12.368,45.677 12.407,45.74 C12.401,45.778 12.395,45.816 12.389,45.854 C12.382,45.804 12.377,45.753 12.371,45.703 C12.343,45.653 12.316,45.603 12.289,45.553 C12.211,45.429 12.132,45.305 12.053,45.181 C12.042,45.166 12.032,45.149 12.02,45.133 C11.764,45.167 11.445,45.292 11.287,45.184 C9.115,43.693 6.851,39.917 8.126,36.5 Z M13.146,34.691 L13.261,34.727 L13.188,34.749 C13.173,34.753 13.161,34.757 13.146,34.762 C13.144,35.15 13.216,35.566 13.089,35.908 C12.457,37.605 12.803,39.221 13.463,40.791 C13.92,41.879 14.513,42.911 15.046,43.967 C15.013,43.997 14.98,44.026 14.948,44.056 C14.964,44.009 14.979,43.961 14.996,43.914 C14.803,43.909 14.521,43.986 14.431,43.888 C12.424,41.697 11.68,39.108 12.17,36.194 C12.264,35.631 12.435,34.968 13.146,34.762 C13.146,34.738 13.146,34.714 13.146,34.691 Z M86.252,60.263 C86.267,60.256 86.283,60.249 86.298,60.242 C86.825,59.621 87.332,58.982 87.883,58.384 C88.646,57.557 89.468,56.783 90.222,55.948 C91.204,54.86 91.715,53.581 91.662,52.09 C91.634,51.316 91.648,50.54 91.674,49.766 C91.685,49.457 91.781,49.15 91.845,48.801 C92.099,48.954 92.287,49.011 92.291,49.077 C92.355,50.337 92.469,51.602 92.428,52.86 C92.383,54.229 91.847,55.46 90.992,56.538 C89.718,58.142 88.201,59.438 86.298,60.242 C86.295,60.247 86.29,60.252 86.286,60.257 L86.23,60.273 C86.099,60.294 85.969,60.316 85.839,60.337 C85.976,60.313 86.114,60.288 86.252,60.263 Z M86.155,57.225 C86.184,57.215 86.212,57.203 86.241,57.192 C86.717,56.206 87.209,55.227 87.665,54.232 C89.164,50.966 89.498,47.627 88.276,44.191 C88.213,44.012 88.267,43.79 88.267,43.456 C88.483,43.572 88.703,43.613 88.755,43.73 C90.069,46.616 90.706,49.614 89.902,52.748 C89.384,54.768 88.351,56.456 86.241,57.192 C86.231,57.213 86.22,57.234 86.211,57.255 C86.094,57.311 85.977,57.366 85.861,57.421 C85.959,57.355 86.056,57.29 86.155,57.225 Z M91.776,47.179 L91.843,47.208 L91.774,47.378 L91.776,47.179 Z M94.612,51.303 C94.648,50.961 94.874,50.64 95.139,50.355 C95.494,53.029 95.31,55.541 93.322,57.606 C92.517,58.441 91.552,58.985 90.467,59.319 C90.264,59.381 89.999,59.24 89.755,59.167 C89.749,59.173 89.743,59.18 89.737,59.186 C89.774,59.282 89.811,59.379 89.848,59.475 C89.796,59.366 89.742,59.257 89.689,59.148 C89.711,59.154 89.733,59.161 89.755,59.167 C90.704,58.146 91.706,57.166 92.588,56.089 C93.721,54.707 94.422,53.11 94.612,51.303 Z M30.07,119.019 C38.675,119.252 47.286,119.344 55.894,119.481 C58.858,119.527 61.833,119.382 64.785,119.587 C75.47,120.329 86.078,119.772 96.628,117.957 C97.182,117.862 97.748,117.794 98.309,117.789 C101.706,117.754 104.791,116.552 107.857,115.272 C108.592,114.965 108.917,114.365 108.989,113.624 C109.022,113.281 108.976,112.914 108.888,112.579 C108.762,112.104 108.64,111.601 108.386,111.191 C106.487,108.124 104.473,105.09 101.621,102.854 C98.565,100.46 95.189,98.531 91.467,97.272 C89.534,96.618 87.619,95.894 85.734,95.108 C84.245,94.488 82.789,93.796 81.765,92.422 C81.018,91.419 79.855,91.004 78.678,90.71 C78.211,90.593 77.718,90.576 77.237,90.513 C76.16,89.43 74.987,88.534 73.759,87.721 C72.201,86.688 70.527,85.989 68.585,86.281 C68.57,86.283 68.555,86.284 68.54,86.282 C68.434,86.272 68.316,86.182 68.205,86.137 C67.456,84.64 66.983,83.055 66.852,81.697 C66.829,81.45 66.816,81.211 66.815,80.98 C66.813,80.636 66.839,80.312 66.891,80.015 C67.748,80.314 68.591,80.812 69.469,80.88 C73.425,81.19 76.86,79.97 79.487,76.924 C81.274,74.851 82.251,72.359 82.762,69.681 C82.904,68.935 83.068,68.194 83.168,67.712 C84.539,67.178 85.74,66.894 86.738,66.279 C88.413,65.248 90.104,64.163 91.532,62.826 C96.705,57.979 99.53,52.176 98.384,44.874 C97.694,40.471 96.042,36.612 92.407,33.808 C92.074,33.552 91.776,33.245 91.494,32.932 C89.986,31.256 88.504,29.556 86.982,27.893 C85.323,26.081 84.271,24.036 83.874,21.559 C82.704,14.269 79.117,8.519 72.662,4.727 C71.515,4.053 70.341,3.382 69.102,2.917 C65.47,1.558 61.751,1.677 58.073,2.686 C56.259,3.183 54.523,3.962 52.614,4.666 C52.357,4.439 52.009,4.094 51.624,3.798 C49.874,2.457 48.043,1.249 45.787,0.994 C44.67,0.867766938 43.532,0.85 42.406,0.881 C34.637,1.098 29.017,4.862 25.391,11.576 C23.822,14.481 22.597,17.561 20.656,20.278 C19.566,21.802 18.374,23.145 16.711,24.018 C15.65,24.575 14.521,25.009 13.492,25.616 C5.559,30.302 3.437,36.268 4.416,43.814 C4.777,46.603 6.338,48.634 9.297,49.257 C9.558,49.312 9.799,49.459 10.194,49.624 C9.863,50.097 9.633,50.519 9.318,50.862 C7.85,52.459 7.02,54.374 6.342,56.407 C4.936,60.627 5.233,64.749 6.934,68.79 C8.36,72.177 11.101,74.035 14.549,74.934 C15.645,75.219 16.784,75.268 17.876,74.792 C18.235,74.635 18.606,74.507 18.954,74.373 C19.15,74.711 19.259,74.89 19.359,75.074 C22.883,81.577 28.79,84.005 35.188,83.317 C37.204,83.101 39.009,82.403 40.542,81.023 C41.15,80.477 41.771,79.9 42.6,79.582 C43.023,82.51 42.953,84.246 42.33,85.748 C39.711,85.213 38.126,86.646 36.956,88.798 C36.653,89.354 36.321,89.895 35.947,90.539 C35.347,90.743 34.685,90.971 34.022,91.193 C32.047,91.855 30.281,92.814 28.989,94.523 C28.706,94.897 28.296,95.232 27.872,95.432 C25.451,96.573 23.032,97.693 20.434,98.438 C17.729,99.213 15.09,100.227 12.449,101.209 C11.534,101.549 10.638,102.02 9.835,102.577 C5.734,105.423 2.62,109.074 0.886,113.815 C0.766,114.143 0.657,114.483 0.604,114.828 C0.485,115.6 0.691,116.274 1.479,116.549 C2.337,116.848 3.217,117.145 4.111,117.259 C5.998,117.5 7.897,117.66 9.796,117.781 C12.752,117.969 15.714,118.073 18.672,118.259 C22.472,118.497 26.266,118.916 30.07,119.019 L30.07,119.019 Z" id="Fill-96"></path>
                <path d="M46.088,40.784 C45.42,40.429 45.022,40.218 44.511,39.945 C44.579,39.261 44.649,38.539 44.729,37.711 C45.905,38.062 46.883,38.354 47.861,38.646 C47.923,38.503 47.985,38.36 48.047,38.218 C46.671,36.711 44.797,36.144 42.888,35.711 C40.088,35.076 37.856,36.499 35.626,37.996 C35.085,37.612 34.599,37.269 33.914,36.782 C33.914,37.279 33.824,37.577 33.929,37.765 C34.381,38.574 34.995,39.222 35.894,39.453 C36.882,39.206 37.38,38.06 38.508,38.216 C38.679,38.929 38.838,39.591 38.972,40.153 C38.428,40.858 37.339,40.431 36.962,41.546 C37.625,41.546 38.158,41.59 38.68,41.538 C40.701,41.336 42.705,40.874 44.759,41.318 C45.064,41.384 45.455,41.051 46.088,40.784" id="Fill-98"></path>
                <path d="M50.508,37.863 C51.097,40.647 50.922,43.439 50.413,46.242 C50.113,47.89 49.996,49.599 50.038,51.274 C50.089,53.328 51.839,54.383 53.769,53.657 C54.762,53.283 55.688,52.754 56.323,51.866 C56.48,51.645 56.464,51.3 56.604,50.667 C55.609,51.354 54.954,51.873 54.237,52.287 C52.928,53.042 51.617,52.378 51.475,50.883 C51.416,50.261 51.502,49.618 51.572,48.991 C51.879,46.271 52.409,43.582 52.286,40.811 C52.165,38.074 51.513,35.532 50.139,33.179 C49.759,32.529 49.263,31.948 48.82,31.335 C48.671,31.415 48.52,31.493 48.371,31.572 C48.631,32.196 48.932,32.807 49.145,33.447 C49.631,34.91 50.191,36.362 50.508,37.863" id="Fill-99"></path>
                <path d="M51.925,59.861 C52.532,59.842 52.723,59.362 52.355,58.617 C50.684,58.333 48.91,58.033 47.194,57.742 C46.606,58.267 46.7,58.728 47.219,59.007 C48.686,59.793 50.308,59.91 51.925,59.861" id="Fill-100"></path>
                <path d="M56.244,59.336 C57.382,59.03 58.539,58.724 59.366,57.794 C59.458,57.691 59.379,57.436 59.379,56.983 C57.654,57.553 55.973,57.805 54.214,58.829 C55.583,59.469 55.594,59.509 56.244,59.336" id="Fill-101"></path>
                <path d="M53.555,62.712 C54.451,62.688 55.266,62.489 55.759,61.455 C54.196,61.455 52.816,61.455 51.079,61.455 C51.762,62.785 52.675,62.736 53.555,62.712" id="Fill-102"></path>
                <line x1="36.664" y1="31.402" x2="36.664" y2="31.402" id="Fill-84"></line>
                <path d="M10.775,60.301 L10.775,60.301 C10.775,60.301 10.78,60.315 10.784,60.33 C10.78,60.315 10.775,60.301 10.775,60.301" id="Fill-85"></path>
                <path d="M10.784,60.33 C10.789,60.344 10.793,60.359 10.793,60.359 C10.785,60.368 10.775,60.378 10.766,60.386 C10.766,60.387 10.766,60.387 10.766,60.387 C10.775,60.378 10.785,60.368 10.793,60.359 C10.799,60.279 10.805,60.199 10.81,60.146 C10.805,60.199 10.799,60.279 10.793,60.359 C10.793,60.359 10.789,60.344 10.784,60.33" id="Fill-86"></path>
                <path d="M33.178,26.56 L33.178,26.56 C33.154,26.594 33.13,26.628 33.104,26.662 C33.089,26.671 33.075,26.68 33.061,26.689 C33.075,26.68 33.089,26.671 33.104,26.662 C33.13,26.628 33.154,26.594 33.178,26.56" id="Fill-87"></path>
                <path d="M32.564,27.003 L32.564,27.002 C32.564,27.002 32.576,26.989 32.588,26.976 C32.58,26.985 32.572,26.994 32.564,27.003" id="Fill-88"></path>
                <path d="M36.661,31.414 L36.66,31.414 L36.661,31.414 C36.662,31.41 36.663,31.406 36.664,31.402 C36.663,31.406 36.662,31.41 36.661,31.414" id="Fill-89"></path>
                <path d="M9.476,57.699 C9.252,57.774 9.028,57.849 8.803,57.924 C9.028,57.849 9.252,57.774 9.476,57.699" id="Fill-90"></path>
                <path d="M10.766,60.387 C10.766,60.387 10.766,60.387 10.766,60.386 C10.766,60.387 10.766,60.387 10.766,60.387" id="Fill-91"></path>
                <path d="M60.256,14.049 C60.255,14.048 60.199,13.986 60.199,13.986 L60.256,14.049" id="Fill-92"></path>
                <path d="M60.389,5.625 L60.333,5.585 C60.299,5.597 60.265,5.608 60.236,5.618 C60.265,5.608 60.299,5.597 60.333,5.585 L60.389,5.625" id="Fill-93"></path>
            </g>
        </g>
    </g>
</svg>