<?xml version="1.0" encoding="UTF-8"?>
<svg width="109px" height="131px" viewBox="0 0 109 131" version="1.1" xmlns="http://www.w3.org/2000/svg" xmlns:xlink="http://www.w3.org/1999/xlink">
    <title>Group 118</title>
    <g id="Page-1" stroke="none" stroke-width="1" fill="none" fill-rule="evenodd">
        <g id="2779187" transform="translate(-155.000000, 0.000000)" fill="#000000">
            <g id="Group-118" transform="translate(155.000000, 0.000000)">
                <path d="M49.84,20.776 C49.855,20.792 49.869,20.807 49.869,20.807 C50.033,20.683 50.196,20.559 50.36,20.435 C50.196,20.559 50.033,20.683 49.869,20.807 L49.84,20.776" id="Fill-115"></path>
                <path d="M96.482,107.512 C94.983,107.143 93.476,106.773 92.022,106.261 C87.189,104.558 82.379,102.793 77.56,101.048 C76.986,100.84 76.263,100.728 76.684,99.643 C84.228,101.565 91.397,104.227 98.534,106.988 C98.768,107.079 98.966,107.264 99.395,107.545 C98.222,107.881 97.336,107.722 96.482,107.512 Z M94.977,111.143 C92.034,110.175 89.095,109.194 86.147,108.244 C85.01,107.877 83.845,107.593 82.707,107.229 C82.51,107.166 82.363,106.949 82.2,106.778 C82.165,106.775 82.13,106.773 82.094,106.769 C82.077,106.751 82.058,106.738 82.041,106.722 C81.667,106.739 81.292,106.756 80.918,106.773 C81.311,106.409 81.687,106.402 82.041,106.722 C82.074,106.721 82.107,106.719 82.139,106.718 C82.16,106.737 82.18,106.757 82.2,106.778 C82.933,106.85 83.695,106.828 84.383,107.043 C88.483,108.319 92.563,109.657 96.646,110.985 C96.754,111.02 96.818,111.184 96.947,111.343 C96.221,111.748 95.606,111.349 94.977,111.143 Z M79.04,106.259 C79.041,106.215 79.041,106.171 79.041,106.128 C79.22,106.128 79.401,106.128 79.582,106.128 C79.582,106.171 79.582,106.215 79.582,106.259 C79.401,106.259 79.22,106.259 79.04,106.259 Z M77.681,105.718 C77.741,105.705 77.8,105.691 77.86,105.677 C77.879,105.717 77.896,105.757 77.914,105.797 C77.854,105.812 77.794,105.838 77.735,105.835 C77.715,105.834 77.699,105.759 77.681,105.718 Z M84.501,111.229 C82.343,110.648 80.186,110.057 78.059,109.377 C77.306,109.135 76.423,109.096 75.874,108.319 C78.861,108.377 81.673,109.169 84.467,110.023 C84.818,110.129 85.091,110.486 85.641,110.915 C85.08,111.079 84.753,111.296 84.501,111.229 Z M71.778,97.619 C71.589,98.814 71.119,99.903 70.274,100.793 C69.854,101.233 69.421,101.7 68.425,101.589 C69.146,100.695 69.834,100.021 70.298,99.217 C70.768,98.404 71.018,97.462 71.37,96.564 C72.076,96.786 71.83,97.291 71.778,97.619 Z M60.67,91.757 C61.318,91.402 61.712,91.142 62.139,90.961 C63.365,90.446 64.613,89.981 65.837,89.462 C67.905,88.586 69.172,87.169 68.932,84.76 C68.912,84.559 68.988,84.347 69.062,83.854 C69.914,84.948 69.804,85.912 69.43,86.828 C69.173,87.461 68.796,88.089 68.328,88.584 C66.919,90.076 63.229,91.611 60.67,91.757 Z M67.772,122.973 C67.724,123.129 67.336,123.244 67.099,123.251 C66.977,123.255 66.743,122.982 66.741,122.832 C66.735,122.422 66.797,122.004 66.886,121.602 C67.019,121.006 67.199,120.421 67.436,119.55 C67.654,120.361 67.881,120.944 67.949,121.545 C68.002,122.013 67.912,122.519 67.772,122.973 Z M66.953,117.527 C66.913,117.103 66.883,116.786 66.841,116.339 C67.641,116.701 67.548,117.032 66.953,117.527 Z M66.992,112.055 C67.08,112.759 67.13,113.159 67.179,113.558 C66.362,113.199 66.371,112.794 66.992,112.055 Z M65.584,105.512 C66.601,106.68 66.662,106.958 66.036,108.533 C65.842,107.245 65.722,106.443 65.584,105.512 Z M65.949,109.792 C66.78,110.092 66.78,110.092 66.502,111.347 C66.276,110.71 66.131,110.305 65.949,109.792 Z M66.1,126.598 C63.377,127.105 60.579,127.261 57.781,127.415 C54.049,127.619 50.316,127.802 46.586,128.044 C45.535,128.112 44.497,128.366 43.449,128.509 C43.121,128.554 42.781,128.517 42.287,128.517 C42.406,127.954 42.506,127.567 42.567,127.174 C42.771,125.854 42.975,124.533 43.153,123.208 C43.537,120.346 43.864,117.477 44.297,114.622 C44.525,113.113 44.924,111.63 45.318,109.805 C46.554,111.571 47.614,113.051 48.236,114.775 C48.898,116.606 49.945,118.161 51.253,119.575 C51.779,120.143 52.251,120.763 52.732,121.371 C53.181,121.939 53.68,122.412 54.662,122.477 C55.366,121.922 56.293,121.37 56.988,120.608 C58.79,118.633 60.484,116.561 62.231,114.537 C63.094,113.537 63.979,112.556 65.028,111.37 C65.843,114.094 65.951,116.627 66.229,119.119 C66.502,121.558 66.568,124.024 66.1,126.598 Z M41.967,117.352 C42.507,118.093 42.507,118.093 42.008,119.665 C41.246,118.842 41.971,118.085 41.967,117.352 Z M41.645,121.222 C41.645,121.346 41.645,121.469 41.645,121.593 C41.605,121.593 41.571,121.593 41.538,121.593 C41.539,121.469 41.54,121.346 41.546,121.223 C41.546,121.221 41.582,121.222 41.615,121.222 C41.626,121.222 41.636,121.222 41.645,121.222 Z M40.985,100.161 C40.499,100.14 39.984,100.11 39.538,99.937 C37.679,99.211 36.076,98.115 34.855,96.505 C34.036,95.424 33.985,94.243 34.471,92.948 C35.199,95.275 37.041,96.458 38.84,97.657 C39.938,98.388 41.096,99.028 42.362,99.79 C41.917,100.28 41.418,100.18 40.985,100.161 Z M41.172,126.442 C41.103,126.627 40.642,126.668 40.26,126.812 C40.017,125.953 40.027,125.337 40.726,124.877 C41.51,125.221 41.384,125.869 41.172,126.442 Z M38.796,88.181 C38.789,88.158 38.783,88.137 38.778,88.116 C38.823,88.086 38.868,88.056 38.913,88.025 C38.957,87.995 39.002,87.965 39.047,87.934 C39.047,87.935 39.047,87.935 39.047,87.935 C38.97,88.012 38.894,88.09 38.818,88.168 C38.81,88.172 38.804,88.176 38.796,88.181 C38.805,88.21 38.816,88.241 38.826,88.271 C38.839,88.307 38.85,88.341 38.857,88.374 C38.868,88.423 38.87,88.466 38.852,88.499 C38.121,89.813 37.371,91.117 36.535,92.583 C36.266,90.114 36.699,89.319 38.796,88.181 Z M37.869,86.35 L37.871,86.32 C37.871,86.305 37.872,86.291 37.872,86.291 C37.913,86.303 37.954,86.314 37.995,86.325 C38.248,86.274 38.501,86.223 38.755,86.172 C38.779,86.145 38.803,86.118 38.826,86.083 C38.904,85.911 38.982,85.738 39.059,85.566 C39.074,85.534 39.088,85.502 39.102,85.471 C39.176,85.458 39.255,85.464 39.335,85.474 C39.564,85.414 39.794,85.353 40.023,85.292 C40.037,85.268 40.05,85.24 40.063,85.209 C40.172,85.015 40.28,84.821 40.389,84.628 C40.708,84.551 41.026,84.475 41.344,84.398 L41.42,84.334 L41.399,84.389 C41.389,84.416 41.379,84.443 41.379,84.443 C41.222,84.483 41.066,84.523 40.909,84.563 C40.752,84.604 40.596,84.644 40.439,84.684 C40.333,84.878 40.227,85.072 40.121,85.267 C40.088,85.275 40.055,85.284 40.023,85.292 C39.857,85.585 39.589,85.506 39.335,85.474 C39.274,85.49 39.212,85.507 39.151,85.523 C39.064,85.73 38.976,85.938 38.889,86.146 C38.844,86.154 38.799,86.164 38.755,86.172 C38.611,86.333 38.444,86.382 38.264,86.372 C38.222,86.369 38.179,86.364 38.136,86.356 C38.089,86.348 38.042,86.337 37.995,86.325 C37.956,86.333 37.918,86.34 37.879,86.348 L37.893,86.465 L37.869,86.35 Z M40.431,86.894 C40.444,86.876 40.458,86.859 40.471,86.842 C40.484,86.825 40.497,86.808 40.51,86.791 L40.632,86.794 L40.498,86.846 C40.476,86.862 40.453,86.878 40.431,86.894 C40.431,86.894 40.431,86.894 40.432,86.894 C40.431,86.894 40.431,86.894 40.431,86.894 Z M42.442,87.125 C42.416,86.638 42.347,86.146 42.394,85.665 C42.414,85.462 42.681,85.284 42.913,85 C43.293,87.104 43.226,90.75 42.872,92.239 C42.626,93.271 42.157,94.018 41.013,94.103 C41.006,94.119 40.999,94.135 40.992,94.151 C40.671,94.253 40.35,94.354 40.028,94.455 C40.027,94.458 40.025,94.461 40.023,94.463 C40.008,94.483 39.994,94.502 39.98,94.521 C39.986,94.511 39.993,94.5 40.001,94.489 C40.007,94.479 40.014,94.468 40.021,94.458 L40.043,94.432 C40.054,94.418 40.066,94.406 40.066,94.406 C40.065,94.406 40.065,94.406 40.065,94.406 L40.066,94.406 C40.363,94.307 40.661,94.208 40.959,94.108 C40.977,94.107 40.995,94.104 41.013,94.103 C41.299,93.438 41.621,92.786 41.855,92.103 C42.408,90.491 42.53,88.818 42.442,87.125 Z M42.634,83.409 C42.589,83.393 42.545,83.377 42.5,83.361 C42.509,83.445 42.518,83.53 42.527,83.615 C42.526,83.615 42.525,83.615 42.523,83.615 C42.511,83.515 42.5,83.416 42.489,83.316 C42.537,83.347 42.586,83.378 42.634,83.409 Z M42.276,110.231 C42.852,109.367 42.469,108.197 43.364,107.073 C43.364,108.308 43.383,109.199 43.352,110.089 C43.342,110.352 42.891,110.418 42.276,110.231 Z M42.278,112.949 C42.359,112.655 42.44,112.361 42.522,112.066 C42.634,112.122 42.85,112.199 42.843,112.231 C42.788,112.507 42.693,112.775 42.609,113.046 C42.498,113.014 42.388,112.981 42.278,112.949 Z M42.464,115.95 C42.342,115.99 42.211,116.076 42.104,116.052 C42.035,116.037 42.002,115.86 41.952,115.756 C42.065,115.716 42.178,115.675 42.291,115.635 C42.349,115.74 42.406,115.845 42.464,115.95 Z M42.401,114.134 L42.371,113.943 L42.486,113.969 L42.401,114.134 Z M64.545,107.473 C64.748,108.334 64.888,108.933 65.081,109.747 C64.468,110.282 63.768,110.777 63.213,111.4 C61.388,113.446 59.617,115.537 57.826,117.611 C56.777,118.826 55.827,120.15 54.227,120.89 C52.378,118.643 50.27,116.668 49.26,113.843 C48.866,112.741 48.055,111.787 47.417,110.775 C47.004,110.121 46.496,109.517 46.156,108.828 C45.964,108.437 46.027,107.921 45.922,107.002 C46.509,107.625 46.82,107.874 47.031,108.19 C49.104,111.291 51.155,114.407 53.225,117.51 C53.863,118.466 54.533,118.534 55.277,117.713 C55.653,117.298 55.991,116.835 56.276,116.353 C57.576,114.143 59.225,112.243 61.181,110.586 C62.293,109.645 63.324,108.609 64.545,107.473 Z M56.081,94.553 C55.865,94.794 55.756,94.994 55.587,95.093 C55.13,95.359 54.623,95.457 54.266,94.977 C54.151,94.822 54.199,94.379 54.341,94.234 C54.744,93.824 55.236,93.489 55.788,94.055 C55.881,94.151 55.93,94.292 56.081,94.553 Z M66.403,88.301 C65.822,88.612 65.305,88.978 64.732,89.178 C62.607,89.917 60.469,90.616 58.326,91.3 C56.786,91.792 55.239,92.268 53.678,92.691 C52.825,92.922 52.382,93.48 52.118,94.254 C52.072,94.387 52.059,94.53 52.026,94.667 C51.366,97.37 53.285,98.385 55.189,97.744 C57.249,97.05 59.378,96.557 61.484,95.974 C62.422,96.412 62.707,97.288 62.894,98.196 C63.362,100.466 63.797,102.742 64.263,105.11 C63.664,105.848 63.134,106.59 62.511,107.242 C61.733,108.057 60.912,108.838 60.05,109.563 C57.975,111.307 56.259,113.337 54.929,115.699 C54.797,115.933 54.575,116.116 54.265,116.473 C52.512,113.963 50.817,111.555 49.145,109.131 C48.625,108.377 48.24,107.522 47.665,106.817 C46.678,105.61 46.57,104.28 46.847,102.843 C47.02,101.947 47.244,101.057 47.346,100.154 C47.407,99.614 47.278,99.053 47.228,98.411 C44.961,98.02 42.708,97.798 40.672,96.498 C40.99,95.918 41.616,95.764 42.118,95.504 C43.399,94.843 44.239,93.906 44.371,92.416 C44.476,91.228 44.642,90.044 44.732,88.855 C44.784,88.164 44.741,87.465 44.741,86.684 C53.557,88.167 60.683,85.454 66.625,78.921 C66.55,80.462 66.448,82.003 66.411,83.546 C66.375,85.093 66.403,86.642 66.403,88.301 Z M35.956,61.633 C34.631,58.284 33.801,54.797 33.286,51.104 C33.958,50.854 34.595,50.618 35.406,50.317 C33.816,48.952 33.083,47.253 33.1006766,45.303 C33.112,44.044 33.217,42.755 33.514,41.537 C34.199,38.729 35.181,36.011 36.412,33.229 C37.106,33.114 37.853,32.967 38.607,32.872 C43.198,32.292 47.553,30.976 51.642,28.791 C51.985,28.607 52.403,28.566 52.789,28.464 C52.795,28.458 52.8,28.453 52.805,28.447 C52.81,28.447 52.815,28.446 52.82,28.446 C53.027,27.896 53.478,27.729 53.993,27.665 C54.004,27.644 54.016,27.625 54.026,27.604 L54.165,27.522 L54.075,27.654 C54.048,27.657 54.021,27.661 53.993,27.665 C53.749,28.137 53.381,28.432 52.82,28.446 C52.818,28.45 52.816,28.453 52.815,28.458 C52.806,28.459 52.798,28.461 52.789,28.464 C51.415,30.003 49.646,30.956 47.802,31.791 C47.365,31.989 46.903,32.133 46.228,32.387 C48.462,32.543 51.662,31.169 54.726,28.946 C57.195,27.155 59.205,24.917 61.068,22.419 C64.129,28.812 69.066,33.25 74.698,37.012 C76.033,37.904 77.514,38.578 79.069,39.429 C79.069,39.648 79.111,39.992 79.062,40.322 C78.506,44.084 77.931,47.844 77.374,51.607 C76.463,57.747 74.556,63.534 71.16,68.764 C68.762,72.458 65.78,75.641 62.352,78.402 C61.804,78.844 61.217,79.243 60.617,79.61 C57.148,81.728 53.649,81.593 50.224,79.564 C47.78,78.115 45.791,76.094 43.839,74.054 C40.381,70.442 37.79,66.268 35.956,61.633 Z M29.735,59.311 C26.944,57.696 25.659,55.12 25.451,51.993 C25.365,50.703 25.919,49.535 26.652,48.313 C28.041,49.295 29.287,50.177 30.581,51.092 C29.834,52.71 29.077,54.345 28.36,55.897 C28.716,56.515 29.154,56.574 29.447,56.171 C29.853,55.612 30.118,54.948 30.436,54.325 C30.872,53.473 31.088,52.492 31.873,51.711 C32.511,54.425 33.118,57.006 33.755,59.714 C32.303,60.292 30.961,60.02 29.735,59.311 Z M24.567,36.206 C24.609,35.962 24.818,35.747 25.168,35.142 C25.215,35.856 25.28,36.155 25.248,36.443 C24.898,39.531 25.535,42.314 27.677,44.671 C27.94,44.959 28.066,45.372 28.248,45.732 C28.269,45.729 28.288,45.729 28.309,45.725 C28.408,45.913 28.507,46.101 28.606,46.289 C28.625,46.307 28.644,46.325 28.663,46.344 C28.626,46.314 28.589,46.285 28.552,46.255 C28.457,46.093 28.361,45.932 28.266,45.77 C28.26,45.757 28.255,45.745 28.248,45.732 C27.337,45.857 26.951,45.117 26.504,44.563 C24.514,42.099 24.048,39.258 24.567,36.206 Z M24.47,30.722 C24.591,30.716 24.713,30.716 24.833,30.716 C24.833,30.766 24.833,30.808 24.833,30.85 C24.712,30.848 24.59,30.846 24.47,30.837 C24.467,30.837 24.468,30.722 24.47,30.722 Z M29.031,45.465 C27.668,43.235 27.112,40.801 27.484,38.196 C27.536,37.83 27.801,37.494 28.022,37.032 C28.156,37.329 28.273,37.458 28.257,37.569 C27.93,39.985 28.837,42.125 29.735,44.268 C30.052,45.025 30.528,45.741 30.337,46.624 C30.351,46.624 30.364,46.625 30.379,46.625 L30.412,46.729 L30.328,46.669 C30.332,46.654 30.334,46.639 30.337,46.624 C29.575,46.621 29.326,45.946 29.031,45.465 Z M26.73,30.886 C30.142,31.302 33.473,30.804 36.779,30.021 C41.248,28.961 45.545,27.417 49.678,25.422 C50.308,25.117 50.863,24.66 51.487,24.341 C51.871,24.146 52.304,24.047 52.722,23.918 C52.744,23.885 52.767,23.853 52.789,23.818 C52.935,23.647 53.082,23.477 53.228,23.307 C53.247,23.326 53.266,23.345 53.285,23.364 C53.138,23.536 52.992,23.708 52.845,23.881 C52.805,23.894 52.763,23.906 52.722,23.918 C52.453,24.331 52.135,24.682 51.783,24.988 C51.631,25.121 51.472,25.245 51.308,25.362 C51.145,25.479 50.976,25.589 50.804,25.694 C50.633,25.799 50.458,25.899 50.28,25.995 C49.838,26.235 49.382,26.45 48.935,26.664 C44.543,28.766 39.953,30.401 35.165,31.291 C32.485,31.789 29.729,32.19 26.977,31.609 C26.6,31.529 26.246,31.339 25.495,31.052 C26.193,30.953 26.469,30.854 26.73,30.886 Z M31.145,27.233 C37.366,26.234 43.289,24.357 48.833,21.332 C48.981,21.251 49.189,21.28 49.377,21.273 C49.384,21.26 49.39,21.246 49.398,21.233 C49.535,21.071 49.673,20.908 49.811,20.746 C49.976,20.625 50.141,20.504 50.306,20.383 C50.332,20.345 50.359,20.307 50.385,20.269 C50.377,20.324 50.368,20.379 50.36,20.435 C50.196,20.559 50.033,20.683 49.869,20.807 C49.724,20.961 49.579,21.115 49.435,21.27 C49.416,21.271 49.396,21.272 49.377,21.273 C49.306,21.403 49.246,21.552 49.179,21.688 C49.143,21.763 49.103,21.833 49.058,21.896 C49.013,21.957 48.962,22.009 48.902,22.047 C47.892,22.677 46.881,23.338 45.793,23.803 C41.65,25.573 37.363,26.904 32.944,27.8 C31.77,28.039 30.595,28.138 28.976,27.84 C29.964,27.559 30.544,27.33 31.145,27.233 Z M61.519,11.184 C60.584,10.183 59.659,9.194 58.734,8.205 C58.733,8.205 58.733,8.205 58.732,8.205 C58.718,8.189 58.705,8.174 58.691,8.159 C58.706,8.174 58.719,8.189 58.734,8.205 C60.724,8.374 61.576,9.276 61.519,11.184 Z M62.362,7.163 C63.212,8.793 63.418,10.562 63.051,12.445 C62.911,12.09 62.738,11.744 62.636,11.379 C62.353,10.368 62.167,9.326 61.818,8.339 C61.35,7.016 60.506,6.023 58.771,5.853 C60.874,5.404 61.57,5.643 62.362,7.163 Z M67.235,23.982 C68.164,26.277 69.746,28.041 71.714,29.485 C73.71,30.95 75.87,32.13 78.119,33.164 C79.266,33.691 80.371,34.309 81.938,35.114 C80.441,35.655 79.469,35.394 78.602,35.038 C75.193,33.635 71.956,31.934 69.422,29.151 C67.873,27.452 66.796,25.491 66.228,23.266 C66.082,22.69 66.087,22.077 65.97,20.995 C66.526,22.305 66.893,23.139 67.235,23.982 Z M70.858,25.599 C73.089,28.006 75.853,29.57 79.367,30.922 C74.917,30.72 72.239,28.447 69.945,25.478 C70.42,24.997 70.671,25.397 70.858,25.599 Z M83.813,47.599 C84.719,48.776 85.39,50.164 85.306,51.679 C85.132,54.808 83.827,57.37 81.061,59.022 C79.883,59.726 78.606,59.982 77.055,59.531 C77.671,56.802 78.239,54.281 78.847,51.582 C79.107,51.839 79.378,52.005 79.501,52.246 C80.076,53.37 80.578,54.532 81.174,55.645 C81.434,56.129 81.877,56.351 82.456,55.621 C81.868,54.391 81.253,53.073 80.608,51.77 C80.234,51.014 79.811,50.283 79.413,49.54 C78.997,48.764 79.118,47.982 79.658,47.379 C80.272,46.694 81.058,46.1 82.069,46.521 C82.698,46.784 83.421,47.09 83.813,47.599 Z M31.951,101.509 C28.203,102.612 24.804,104.488 21.358,106.257 C18.772,107.585 16.007,108.428 13.242,109.264 C12.101,109.609 10.931,109.714 9.278,109.084 C17.129,105.439 24.957,103.085 32.288,99.491 C32.462,99.729 32.63,99.879 32.691,100.064 C32.776,100.323 32.78,100.608 32.831,100.96 C32.526,101.155 32.264,101.418 31.951,101.509 Z M31.666,111.192 C31.583,111.192 31.5,111.192 31.456,111.192 C31.418,111.201 31.424,111.199 31.456,111.192 C31.437,111.192 31.424,111.192 31.422,111.192 C31.424,111.192 31.437,111.192 31.456,111.192 C31.501,111.181 31.601,111.157 31.702,111.133 C31.715,111.111 31.73,111.089 31.743,111.067 C31.717,111.109 31.692,111.15 31.666,111.192 Z M30.106,117.605 C29.407,118.072 28.637,118.434 27.918,118.873 C26.185,119.932 26.013,120.148 25.359,121.888 C24.723,121.671 24.765,121.171 24.889,120.679 C25.09,119.884 25.654,119.344 26.299,118.897 C27.098,118.342 27.922,117.821 28.955,117.141 C24.864,117.006 21.258,118.718 17.55,118.687 C17.027,118.013 17.249,117.582 17.67,117.273 C18.234,116.86 18.822,116.455 19.455,116.167 C21.757,115.12 24.084,114.127 26.398,113.106 C27.603,112.573 28.801,112.023 30.038,111.465 C30.16,112.231 29.645,112.358 29.275,112.535 C28.007,113.141 26.718,113.703 25.439,114.284 C23.839,115.01 22.234,115.724 20.646,116.475 C20.026,116.767 19.446,117.144 18.93,117.742 C19.304,117.714 19.689,117.734 20.05,117.651 C22.793,117.024 25.547,116.473 28.358,116.252 C29.119,116.192 29.887,115.981 30.913,116.606 C30.587,117.023 30.406,117.404 30.106,117.605 Z M23.089,30.356 L23.241,30.305 L23.242,30.407 L23.089,30.356 Z M107.355,115.458 C105.876,112.728 104.383,109.998 101.706,108.19 C101.494,108.047 101.274,107.779 101.238,107.541 C101.123,106.792 100.593,106.482 99.997,106.231 C98.049,105.415 96.093,104.62 94.147,103.803 C88.478,101.425 82.573,99.812 76.647,98.227 C74.924,97.766 73.377,96.671 73.093,94.515 C72.762,91.999 72.393,89.482 71.868,87.001 C71.408,84.828 70.556,82.812 68.324,81.787 C68.218,81.739 68.168,81.574 67.983,81.306 C68.164,79.071 68.356,76.689 68.545,74.349 C69.626,72.976 70.752,71.699 71.699,70.302 C72.685,68.846 73.575,67.312 74.367,65.741 C75.117,64.253 75.686,62.672 76.342,61.113 C80.317,61.931 83.077,60.26 85.134,57.217 C86.138,55.733 86.542,53.979 86.624,52.201 C86.739,49.731 85.35,47.815 84.113,46.062 C84.847,43.834 85.526,41.778 86.223,39.665 C86.702,39.577 87.191,39.527 87.656,39.39 C88.055,39.272 88.426,39.056 88.924,38.832 C87.949,38.388 87.093,39.3 86.247,38.543 C86.895,35.956 86.196,33.432 85.611,30.896 C85.563,30.691 85.512,30.485 85.483,30.276 C84.774,25.307 82.792,20.801 80.399,16.458 C78.82,13.592 76.382,11.605 73.542,10.056 C71.418,8.898 69.182,8.138 66.693,7.998 C67.309,7.184 68.142,7.282 68.889,7.204 C69.658,7.124 70.441,7.094 71.21,7.152 C71.976,7.21 72.755,7.33 73.485,7.561 C74.176,7.779 74.812,8.176 75.868,8.686 C75.06,7.4 74.211,6.939 73.296,6.613 C70.585,5.647 67.901,6.041 65.135,7.03 C64.93,6.306 64.788,5.701 64.587,5.116 C64.058,3.583 63.568,2.019 62.263,0.917 C62.01,0.704 61.728,0.422 61.281,0.855 C62.697,2.387 63.377,4.257 63.753,6.66 C63.261,5.869 62.96,5.404 62.678,4.927 C61.734,3.326 60.366,2.618 58.48,2.598 C55.415,2.566 52.682,3.567 50.011,4.915 C48.441,5.707 46.86,6.495 45.227,7.137 C42.08,8.375 38.885,9.49 35.724,10.691 C33.485,11.542 31.228,12.364 29.207,13.693 C24.707,16.651 21.097,20.416 18.444,25.141 C16.753,28.152 16.046,31.289 16.436,34.692 C16.652,36.579 17.222,38.357 18.298,40.439 C18.02,38.407 17.67,36.831 17.626,35.246 C17.58,33.567 17.713,31.863 17.978,30.204 C18.232,28.609 18.903,27.128 19.929,25.861 C19.718,28.037 19.433,30.191 19.32,32.354 C19.205,34.551 19.658,36.703 20.176,38.833 C20.868,41.683 21.71,43.845 22.572,44.779 C22.408,43.522 21.875,42.419 22.03,40.953 C23.336,43.255 24.506,45.317 25.733,47.482 C24.735,49.447 23.709,51.49 24.307,53.999 C24.888,56.432 25.985,58.412 27.933,60.02 C29.915,61.653 32.186,61.658 34.591,61.469 C34.87,62.133 35.134,62.704 35.352,63.291 C36.566,66.566 38.284,69.569 40.585,72.174 C41.907,73.67 42.861,75.167 42.701,77.226 C42.669,77.637 42.843,78.059 42.871,78.479 C42.955,79.727 43.014,80.977 43.079,82.16 C41.364,83.095 39.816,83.925 38.281,84.778 C36.535,85.75 35.05,87.035 33.814,88.604 C32.688,90.034 32.006,91.609 32.111,93.479 C32.197,95.01 32.223,96.543 32.28,98.184 C31.467,98.563 30.661,98.99 29.818,99.326 C23.276,101.932 16.737,104.547 10.17,107.091 C8.877,107.592 7.894,108.183 7.89,109.774 C6.335,110.61 5.311,111.965 4.527,113.48 C3.204,116.037 1.971,118.641 0.724,121.177 C1.637,123.254 3.25,124.434 5.23,125.155 C7.082,125.83 8.928,126.512 10.906,126.793 C12.859,127.069 14.798,127.452 16.733,127.838 C20.741,128.639 24.743,129.475 28.749,130.291 C32.379,131.031 36,131.345 39.625,130.206 C40.491,129.934 41.418,129.782 42.326,129.729 C47.465,129.428 52.604,129.023 57.748,128.941 C64.135,128.838 70.404,127.94 76.582,126.468 C81.966,125.185 87.399,124.626 92.911,124.403 C97.416,124.221 101.911,123.786 106.407,123.41 C107.802,123.294 108.743,122.287 108.75762,120.896 C108.768,119.927 108.632,118.933 108.392,117.993 C108.168,117.116 107.789,116.258 107.355,115.458 L107.355,115.458 Z" id="Fill-117"></path>
                <path d="M40.498,86.846 C40.476,86.862 40.454,86.878 40.432,86.894 C40.431,86.894 40.431,86.894 40.431,86.894 C40.453,86.878 40.476,86.862 40.498,86.846" id="Fill-119"></path>
                <path d="M49.435,21.27 L49.423,21.259 C49.429,21.265 49.435,21.27 49.435,21.27" id="Fill-120"></path>
                <path d="M40.51,86.791 C40.497,86.808 40.484,86.825 40.471,86.842 C40.484,86.825 40.497,86.808 40.51,86.791" id="Fill-121"></path>
                <line x1="38.755" y1="86.172" x2="38.755" y2="86.172" id="Fill-122"></line>
                <path d="M38.826,86.083 C38.904,85.911 38.982,85.738 39.059,85.566 C38.982,85.738 38.904,85.911 38.826,86.083 C38.803,86.118 38.779,86.145 38.755,86.172 C38.779,86.145 38.803,86.118 38.826,86.083" id="Fill-123"></path>
                <path d="M66.095,42.009 C64.544,42.272 63.173,43.029 62.16,44.279 C61.991,44.488 61.988,44.938 62.085,45.215 C62.138,45.368 62.572,45.492 62.807,45.456 C63.256,45.387 63.684,45.193 64.152,45.041 C64.398,45.891 64.606,46.608 64.789,47.238 C64.407,47.738 63.535,47.766 63.994,48.705 C64.5,48.638 65.042,48.557 65.585,48.499 C66.144,48.438 66.704,48.386 67.265,48.358 C67.827,48.329 68.39,48.335 68.953,48.325 C69.515,48.314 70.083,48.347 70.638,48.278 C71.169,48.211 71.685,48.038 72.551,47.829 C71.546,47.366 70.876,47.058 70.14,46.719 C70.396,45.847 70.627,45.062 70.858,44.274 C72.152,44.248 73.127,44.884 74.709,45.284 C74.275,44.614 74.14,44.194 73.851,43.991 C71.523,42.356 68.945,41.528 66.095,42.009" id="Fill-124"></path>
                <path d="M47.636,49.247 C47.722,49.232 47.779,49.05 47.918,48.843 C47.506,48.53 47.09,48.213 46.66,47.885 C46.976,47.065 47.268,46.31 47.545,45.591 C48.375,45.569 48.98,46.42 49.982,45.863 C49.725,45.423 49.581,44.94 49.26,44.668 C47.709,43.352 45.824,42.554 43.854,42.66 C40.878,42.82 38.157,43.833 36.065,46.687 C37.411,46.229 38.442,45.854 39.489,45.534 C39.855,45.423 40.261,45.444 40.726,45.397 C40.81,46.201 40.88,46.874 40.95,47.54 C40.407,47.785 39.977,47.979 39.547,48.172 C39.565,48.3 39.583,48.428 39.601,48.556 C39.849,48.614 40.099,48.728 40.345,48.72 C42.524,48.657 44.694,48.651 46.817,49.274 C47.068,49.347 47.368,49.294 47.636,49.247" id="Fill-125"></path>
                <path d="M52.759,47.579 C52.818,50.53 52.764,53.483 52.758,56.436 C52.756,57.349 52.666,58.273 52.78,59.171 C52.942,60.44 54.257,61.402 55.372,61.004 C57.112,60.382 58.447,59.234 59.103,57.409 C58.242,58.373 57.174,58.988 55.995,59.427 C54.877,59.843 54.255,59.427 54.207,58.2 C54.188,57.711 54.249,57.218 54.295,56.729 C54.769,51.644 54.383,46.621 53.175,41.663 C53.114,41.411 52.835,41.213 52.453,40.732 C52.419,41.433 52.369,41.776 52.391,42.115 C52.51,43.937 52.723,45.756 52.759,47.579" id="Fill-126"></path>
                <path d="M62.41,37.168 C62.479,37.165 62.548,37.152 62.619,37.146 C65.847,36.842 69.053,37.022 72.249,37.55 C72.634,37.613 73.041,37.558 73.491,37.558 C73.367,36.459 72.599,36.042 71.821,35.782 C70.697,35.408 69.534,35.094 68.363,34.928 C66.259,34.63 64.167,34.854 62.128,35.444 C61.605,35.596 61.035,35.846 61.054,36.56 C61.066,36.992 61.588,37.213 62.41,37.168" id="Fill-127"></path>
                <path d="M48.611,37.343 C48.364,35.953 47.496,35.753 46.698,35.616 C44.231,35.194 41.782,35.364 39.415,36.188 C37.982,36.688 36.972,37.674 36.485,39.138 C38.487,38.577 40.398,37.84 42.374,37.545 C44.354,37.249 46.4,37.395 48.611,37.343" id="Fill-128"></path>
                <path d="M62.571,64.472 C60.504,65.051 58.441,65.648 56.022,66.344 C57.115,67.121 57.885,66.918 58.601,66.767 C60.098,66.452 61.631,66.187 62.881,65.201 C62.995,65.112 62.957,64.833 62.986,64.656 C62.813,64.576 62.67,64.444 62.571,64.472" id="Fill-129"></path>
                <path d="M52.717,69.788 C53.168,70.073 53.385,70.327 53.607,70.332 C54.929,70.358 56.254,70.351 57.575,70.293 C57.778,70.284 57.967,69.959 58.194,69.753 C56.481,69.164 54.792,69.147 52.717,69.788" id="Fill-130"></path>
                <path d="M48.025,65.881 C48.193,66.239 48.246,66.528 48.42,66.671 C48.618,66.834 48.92,66.927 49.184,66.946 C50.397,67.031 51.648,67.32 52.907,66.413 C51.268,65.679 49.755,65.592 48.025,65.881" id="Fill-131"></path>
                <path d="M38.858,86.114 C38.874,86.13 38.889,86.146 38.889,86.146 C38.976,85.938 39.064,85.73 39.151,85.523 C39.064,85.73 38.976,85.938 38.889,86.146 L38.858,86.114" id="Fill-103"></path>
                <path d="M49.811,20.746 C49.811,20.746 49.825,20.761 49.84,20.776 L49.811,20.746" id="Fill-104"></path>
                <path d="M40.909,84.563 C41.066,84.523 41.222,84.483 41.379,84.443 C41.379,84.443 41.389,84.416 41.399,84.389 L41.379,84.443 C41.222,84.483 41.066,84.523 40.909,84.563" id="Fill-105"></path>
                <path d="M40.028,94.455 C40.35,94.354 40.671,94.253 40.992,94.151 C40.671,94.253 40.35,94.354 40.028,94.455" id="Fill-106"></path>
                <path d="M41.344,84.398 C41.344,84.398 41.353,84.41 41.361,84.421 L41.344,84.398 C41.026,84.475 40.708,84.551 40.389,84.628 C40.708,84.551 41.026,84.475 41.344,84.398" id="Fill-107"></path>
                <path d="M38.778,88.116 L38.778,88.116 C38.823,88.086 38.868,88.056 38.913,88.025 C38.868,88.056 38.823,88.086 38.778,88.116" id="Fill-108"></path>
                <path d="M49.398,21.233 L49.398,21.233 C49.39,21.246 49.384,21.26 49.377,21.273 C49.384,21.26 49.39,21.246 49.398,21.233" id="Fill-109"></path>
                <path d="M39.047,87.935 L39.047,87.935 C38.97,88.012 38.894,88.09 38.818,88.168 C38.894,88.09 38.97,88.012 39.047,87.935" id="Fill-110"></path>
                <path d="M38.826,86.083 C38.826,86.083 38.842,86.099 38.858,86.114 L38.826,86.083" id="Fill-111"></path>
                <path d="M40.498,86.846 L40.501,86.833 C40.499,86.84 40.498,86.846 40.498,86.846" id="Fill-112"></path>
                <path d="M52.789,23.818 C52.935,23.647 53.082,23.477 53.228,23.307 C53.082,23.477 52.935,23.647 52.789,23.818 C52.767,23.853 52.744,23.885 52.722,23.918 C52.744,23.885 52.767,23.853 52.789,23.818" id="Fill-113"></path>
                <line x1="40.028" y1="94.455" x2="40.028" y2="94.455" id="Fill-114"></line>
            </g>
        </g>
    </g>
</svg>